# Blender v2.79 (sub 0) OBJ File: 'cajon_figuras.blend'
# www.blender.org
mtllib cajon_figuras.mtl
o Cube
v 0.200000 -0.000000 -2.499999
v 0.200000 -0.000000 2.499999
v -0.200000 -0.000000 2.499998
v -0.200000 -0.000000 -2.500000
v 0.200000 1.500000 -2.499997
v 0.200000 1.500000 2.500000
v -0.200000 1.500000 2.499998
v -0.200000 1.500000 -2.499999
v 0.200000 1.500000 2.376672
v 0.200000 -0.000000 2.364565
v 0.200000 1.500000 -2.413786
v 0.200000 -0.000000 -2.403719
v 0.200000 1.415594 -2.499997
v 0.200000 1.417602 2.500000
v 0.200000 1.417552 2.376007
v 0.200000 1.415629 -2.413220
v 0.200000 0.111546 2.499999
v 0.200000 0.090710 -2.499999
v 0.200000 0.110985 2.365461
v 0.200000 0.091108 -2.404331
v -0.130325 1.415629 -2.413220
v -0.130325 1.417552 2.376007
v -0.130325 0.110985 2.365461
v -0.130325 0.091108 -2.404331
v 0.023520 1.417552 2.376007
v 0.037103 0.110985 2.365461
v 0.035603 0.255249 2.366625
v 0.200000 0.253669 2.366612
v 0.033289 0.477876 2.368422
v 0.200000 0.488778 2.368510
v 0.031802 0.697615 2.369576
v 0.200000 0.631517 2.369662
v 0.200000 0.850651 2.371431
v 0.029430 0.849065 2.371418
v 0.027985 1.064417 2.372540
v 0.200000 0.995922 2.372603
v 0.200000 1.292897 2.375001
v 0.024812 1.293298 2.375004
v 0.200000 0.253669 2.366612
v 0.200000 0.110985 2.365461
v 0.037103 0.110985 2.365461
v 0.035603 0.317246 2.366625
v 0.200001 0.231764 -2.407285
v 0.200001 0.089079 -2.408437
v 0.037104 0.089079 -2.408437
v 0.035604 0.295341 -2.407273
v 0.200001 0.589608 -2.408718
v 0.200001 0.446869 -2.409870
v 0.033290 0.435966 -2.409958
v 0.031804 0.655706 -2.408804
v 0.199569 0.981844 -2.414674
v 0.199569 0.836573 -2.415846
v 0.029000 0.834986 -2.415859
v 0.027555 1.050338 -2.414737
v 0.023522 1.417400 -2.409830
v 0.200001 1.417400 -2.409830
v 0.024814 1.293147 -2.410833
v 0.200001 1.292745 -2.410836
v 0.088413 0.110985 2.365461
v 0.142712 0.110985 2.365461
v 0.079109 1.417552 2.376007
v 0.137935 1.417552 2.376007
v 0.142185 0.254225 2.366617
v 0.087386 0.254751 2.366621
v 0.141371 0.484944 2.368479
v 0.085800 0.481310 2.368450
v 0.140848 0.654762 2.369632
v 0.084782 0.676795 2.369603
v 0.140014 0.850093 2.371426
v 0.083157 0.849564 2.371422
v 0.139505 1.020010 2.372581
v 0.082167 1.042842 2.372560
v 0.138389 1.293038 2.375002
v 0.079994 1.293172 2.375003
v 0.088413 0.110985 2.365461
v 0.142712 0.110985 2.365461
v 0.142185 0.276028 2.366617
v 0.087386 0.297221 2.366621
v 0.088414 0.089079 -2.408437
v 0.142713 0.089079 -2.408437
v 0.142186 0.254123 -2.407281
v 0.087387 0.275315 -2.407277
v 0.141372 0.443035 -2.409901
v 0.085802 0.439401 -2.409930
v 0.140849 0.612853 -2.408748
v 0.084783 0.634886 -2.408777
v 0.139583 0.836015 -2.415851
v 0.082726 0.835486 -2.415855
v 0.139075 1.005932 -2.414696
v 0.081737 1.028763 -2.414717
v 0.079110 1.417400 -2.409830
v 0.137937 1.417400 -2.409830
v 0.138391 1.292886 -2.410835
v 0.079995 1.293020 -2.410834
v 0.130584 0.628645 2.369861
v 0.074518 0.650678 2.369832
v 0.130585 0.586736 -2.408519
v 0.074520 0.608769 -2.408548
v 0.124900 0.231334 2.366822
v 0.070101 0.252526 2.366826
v 0.124901 0.209428 -2.407076
v 0.070102 0.230621 -2.407072
v 0.124401 0.982078 2.372694
v 0.067063 1.004910 2.372673
v 0.123971 0.967999 -2.414583
v 0.066632 0.990831 -2.414604
v 0.138435 1.312882 2.375001
v 0.080039 1.313016 2.375002
v 0.138436 1.312731 -2.410836
v 0.080041 1.312864 -2.410835
vt 0.500000 0.997987
vt 0.931269 0.748993
vt 0.931269 0.251007
vt 0.500000 0.002013
vt 0.068731 0.251007
vt 0.068731 0.748993
vt 0.500000 0.997987
vt 0.931269 0.748993
vt 0.931269 0.251007
vt 0.500000 0.002013
vt 0.068731 0.251007
vt 0.068731 0.748993
vt 0.002013 0.002013
vt 0.997987 0.002013
vt 0.997987 0.997987
vt 0.002013 0.997987
vt 0.500000 0.997987
vt 0.931269 0.748993
vt 0.931269 0.251007
vt 0.068731 0.251007
vt 0.068731 0.748993
vt 0.002013 0.002013
vt 0.997987 0.002013
vt 0.997987 0.997987
vt 0.002013 0.997987
vt 0.931269 0.748993
vt 0.931269 0.251007
vt 0.500000 0.002013
vt 0.068731 0.251007
vt 0.068731 0.748993
vt 0.002013 0.002013
vt 0.997987 0.002013
vt 0.997987 0.997987
vt 0.002013 0.997987
vt 0.002013 0.002013
vt 0.997987 0.002013
vt 0.997987 0.997987
vt 0.002013 0.997987
vt 0.002013 0.002013
vt 0.997987 0.002013
vt 0.997987 0.997987
vt 0.002013 0.997987
vt 0.002013 0.002013
vt 0.997987 0.002013
vt 0.997987 0.997987
vt 0.002013 0.997987
vt 0.002013 0.002013
vt 0.997987 0.002013
vt 0.997987 0.997987
vt 0.002013 0.997987
vt 0.002013 0.002013
vt 0.997987 0.002013
vt 0.997987 0.997987
vt 0.002013 0.997987
vt 0.002013 0.002013
vt 0.997987 0.997987
vt 0.002013 0.997987
vt 0.500000 0.997987
vt 0.792709 0.902880
vt 0.973614 0.653886
vt 0.973614 0.346114
vt 0.792709 0.097120
vt 0.500000 0.002013
vt 0.207291 0.097120
vt 0.026386 0.346114
vt 0.026386 0.653886
vt 0.207291 0.902880
vt 0.500000 0.997987
vt 0.889342 0.810490
vt 0.985501 0.389187
vt 0.716068 0.051329
vt 0.283931 0.051329
vt 0.014499 0.389188
vt 0.110658 0.810490
vt 0.002013 0.002013
vt 0.997987 0.002013
vt 0.997987 0.997987
vt 0.002013 0.997987
vt 0.002013 0.997987
vt 0.500000 0.997987
vt 0.889342 0.810490
vt 0.985501 0.389187
vt 0.716068 0.051329
vt 0.283931 0.051329
vt 0.014499 0.389188
vt 0.110658 0.810490
vt 0.002013 0.002013
vt 0.997987 0.002013
vt 0.997987 0.997987
vt 0.002013 0.997987
vt 0.500000 0.997987
vt 0.792709 0.902880
vt 0.973614 0.653886
vt 0.973614 0.346114
vt 0.792709 0.097120
vt 0.500000 0.002013
vt 0.207291 0.097120
vt 0.026386 0.346114
vt 0.026386 0.653886
vt 0.207291 0.902880
vt 0.002013 0.002013
vt 0.997987 0.997987
vt 0.002013 0.997987
vt 0.002013 0.002013
vt 0.997987 0.002013
vt 0.997987 0.997987
vt 0.002013 0.997987
vt 0.002013 0.002013
vt 0.997987 0.002013
vt 0.997987 0.997987
vt 0.002013 0.997987
vt 0.002013 0.002013
vt 0.997987 0.002013
vt 0.997987 0.997987
vt 0.002013 0.997987
vt 0.002013 0.002013
vt 0.997987 0.002013
vt 0.997987 0.997987
vt 0.002013 0.997987
vt 0.002013 0.002013
vt 0.997987 0.002013
vt 0.997987 0.997987
vt 0.002013 0.997987
vt 0.002013 0.002013
vt 0.997987 0.002013
vt 0.997987 0.997987
vt 0.002013 0.997987
vt 0.002013 0.002013
vt 0.997987 0.002013
vt 0.997987 0.997987
vt 0.002013 0.997987
vt 0.002013 0.002013
vt 0.997987 0.002013
vt 0.997987 0.997987
vt 0.002013 0.997987
vt 0.002013 0.002013
vt 0.997987 0.002013
vt 0.997987 0.997987
vt 0.002013 0.997987
vt 0.002013 0.002013
vt 0.997987 0.002013
vt 0.997987 0.997987
vt 0.002013 0.997987
vt 0.002013 0.002013
vt 0.997987 0.002013
vt 0.997987 0.997987
vt 0.002013 0.997987
vt 0.002013 0.002013
vt 0.997987 0.002013
vt 0.002013 0.997987
vt 0.002013 0.002013
vt 0.997987 0.002013
vt 0.997987 0.997987
vt 0.002013 0.997987
vt 0.002013 0.002013
vt 0.997987 0.002013
vt 0.997987 0.997987
vt 0.002013 0.997987
vt 0.002013 0.002013
vt 0.002013 0.997987
vt 0.002013 0.002013
vt 0.997987 0.002013
vt 0.997987 0.997987
vt 0.002013 0.997987
vt 0.002013 0.002013
vt 0.997987 0.002013
vt 0.997987 0.997987
vt 0.002013 0.997987
vt 0.002013 0.002013
vt 0.002013 0.997987
vt 0.002013 0.002013
vt 0.997987 0.002013
vt 0.997987 0.997987
vt 0.002013 0.997987
vt 0.002013 0.002013
vt 0.997987 0.002013
vt 0.997987 0.997987
vt 0.002013 0.997987
vt 0.002013 0.002013
vt 0.997987 0.002013
vt 0.997987 0.997987
vt 0.002013 0.997987
vt 0.002013 0.002013
vt 0.997987 0.997987
vt 0.002013 0.997987
vt 0.002013 0.002013
vt 0.997987 0.002013
vt 0.002013 0.997987
vt 0.997987 0.997987
vt 0.002013 0.997987
vt 0.002013 0.002013
vt 0.997987 0.002013
vt 0.997987 0.997987
vt 0.002013 0.997987
vt 0.997987 0.002013
vt 0.997987 0.997987
vt 0.002013 0.997987
vt 0.002013 0.002013
vt 0.997987 0.002013
vt 0.997987 0.997987
vt 0.002013 0.002013
vt 0.997987 0.002013
vt 0.997987 0.997987
vt 0.002013 0.997987
vt 0.002013 0.002013
vt 0.997987 0.002013
vt 0.002013 0.002013
vt 0.997987 0.002013
vt 0.997987 0.997987
vt 0.002013 0.002013
vt 0.997987 0.002013
vt 0.997987 0.997987
vt 0.002013 0.997987
vt 0.002013 0.002013
vt 0.997987 0.002013
vt 0.997987 0.997987
vt 0.002013 0.997987
vt 0.002013 0.002013
vt 0.997987 0.002013
vt 0.997987 0.997987
vt 0.002013 0.002013
vt 0.997987 0.002013
vt 0.997987 0.997987
vt 0.002013 0.002013
vt 0.997987 0.002013
vt 0.997987 0.997987
vt 0.002013 0.997987
vt 0.997987 0.002013
vt 0.997987 0.997987
vt 0.002013 0.002013
vt 0.997987 0.002013
vt 0.002013 0.002013
vt 0.997987 0.002013
vt 0.002013 0.002013
vt 0.997987 0.002013
vt 0.997987 0.997987
vt 0.002013 0.997987
vt 0.002013 0.002013
vt 0.997987 0.002013
vt 0.997987 0.997987
vt 0.002013 0.002013
vt 0.997987 0.002013
vt 0.002013 0.002013
vt 0.997987 0.002013
vt 0.002013 0.002013
vt 0.997987 0.002013
vt 0.997987 0.997987
vt 0.002013 0.997987
vt 0.002013 0.002013
vt 0.997987 0.002013
vt 0.997987 0.997987
vt 0.002013 0.997987
vt 0.002013 0.002013
vt 0.997987 0.002013
vt 0.997987 0.997987
vt 0.002013 0.997987
vt 0.002013 0.002013
vt 0.997987 0.002013
vt 0.997987 0.997987
vt 0.002013 0.997987
vt 0.997987 0.997987
vt 0.002013 0.997987
vt 0.997987 0.997987
vt 0.002013 0.997987
vt 0.002013 0.002013
vt 0.997987 0.002013
vt 0.002013 0.997987
vt 0.997987 0.002013
vt 0.997987 0.997987
vt 0.002013 0.997987
vt 0.997987 0.997987
vt 0.002013 0.997987
vt 0.002013 0.002013
vt 0.997987 0.002013
vt 0.997987 0.997987
vt 0.002013 0.997987
vt 0.002013 0.002013
vt 0.997987 0.002013
vt 0.997987 0.997987
vt 0.002013 0.997987
vt 0.997987 0.997987
vt 0.002013 0.997987
vt 0.997987 0.997987
vt 0.002013 0.997987
vt 0.002013 0.002013
vt 0.997987 0.002013
vt 0.997987 0.997987
vt 0.002013 0.997987
vt 0.997987 0.997987
vt 0.002013 0.997987
vt 0.002013 0.002013
vt 0.997987 0.002013
vt 0.997987 0.997987
vt 0.002013 0.997987
vt 0.997987 0.997987
vt 0.997987 0.997987
vt 0.002013 0.997987
vt 0.002013 0.997987
vt 0.002013 0.002013
vt 0.997987 0.002013
vt 0.997987 0.997987
vt 0.002013 0.997987
vt 0.997987 0.997987
vt 0.002013 0.997987
vt 0.002013 0.002013
vt 0.997987 0.002013
vt 0.997987 0.997987
vt 0.002013 0.997987
vt 0.002013 0.002013
vt 0.997987 0.002013
vt 0.997987 0.997987
vt 0.002013 0.997987
vt 0.997987 0.997987
vt 0.002013 0.997987
vt 0.997987 0.997987
vt 0.002013 0.997987
vt 0.002013 0.002013
vt 0.997987 0.002013
vt 0.997987 0.997987
vt 0.002013 0.997987
vt 0.002013 0.997987
vt 0.002013 0.002013
vt 0.997987 0.997987
vt 0.002013 0.997987
vt 0.002013 0.002013
vt 0.997987 0.997987
vn 0.0000 -1.0000 -0.0000
vn 0.0000 1.0000 0.0000
vn 1.0000 0.0000 0.0000
vn -0.0000 -0.0000 1.0000
vn -1.0000 -0.0000 -0.0000
vn 0.0000 0.0000 -1.0000
vn 0.0000 1.0000 -0.0042
vn -0.9999 -0.0104 0.0000
vn 0.0000 0.0067 1.0000
vn 0.0000 -1.0000 0.0004
vn 0.3607 0.9327 -0.0043
vn -0.0012 0.0081 -1.0000
vn 0.0000 0.0081 -1.0000
vn 0.3657 0.9307 -0.0082
vn 0.0019 0.0086 -1.0000
vn 0.0093 -1.0000 0.0029
vn 0.0019 0.0085 -1.0000
vn 0.0001 0.0000 1.0000
vn -0.6132 0.0000 -0.7899
vn 0.0014 0.0075 -1.0000
vn 0.0000 -1.0000 0.0046
vn -1.0000 -0.0073 0.0000
vn 0.0017 0.0074 -1.0000
vn -1.0000 -0.0068 0.0001
vn 0.0652 -0.9978 0.0088
vn 1.0000 0.0000 -0.0001
vn 0.3699 0.9291 -0.0028
vn -1.0000 -0.0067 0.0001
vn -0.0023 -1.0000 0.0000
vn -0.0007 -0.0027 -1.0000
vn 0.0013 0.0055 -1.0000
vn 0.0015 0.0063 -1.0000
vn 0.0014 0.0056 -1.0000
vn 0.0016 0.0063 -1.0000
vn 0.0011 0.0059 -1.0000
vn 0.0012 0.0066 -1.0000
vn 0.0022 0.0103 -0.9999
vn 0.0020 0.0093 -1.0000
vn 0.0024 0.0113 -0.9999
vn 0.0022 0.0098 -0.9999
vn -0.0025 -0.0078 -1.0000
vn 0.9327 -0.3607 0.0017
vn 0.9307 -0.3657 0.0032
vn 0.0025 0.0078 1.0000
vn -0.9307 0.3657 -0.0032
vn -0.9327 0.3607 -0.0017
vn 0.0016 0.0040 1.0000
vn -0.0016 -0.0040 -1.0000
vn 0.0007 0.0027 1.0000
vn 0.9291 -0.3699 0.0010
vn -0.9291 0.3699 -0.0010
vn 1.0000 -0.0023 0.0000
vn -1.0000 0.0023 -0.0000
usemtl None
s off
f 1/1/1 12/2/1 10/3/1 2/4/1 3/5/1 4/6/1
f 5/7/2 8/8/2 7/9/2 6/10/2 9/11/2 11/12/2
f 1/13/3 18/14/3 20/15/3 12/16/3
f 2/17/4 17/18/4 14/19/4 6/10/4 7/20/4 3/21/4
f 3/22/5 7/23/5 8/24/5 4/25/5
f 5/7/6 13/26/6 18/27/6 1/28/6 4/29/6 8/30/6
f 23/31/3 24/32/3 21/33/3 22/34/3
f 10/35/3 19/36/3 17/37/3 2/38/3
f 12/39/3 20/40/3 19/41/3 10/42/3
f 16/43/3 13/44/3 5/45/3 11/46/3
f 14/47/3 15/48/3 9/49/3 6/50/3
f 15/51/3 16/52/3 11/53/3 9/54/3
f 20/55/3 18/14/3 13/56/3 16/57/3
f 17/58/3 19/59/3 28/60/3 30/61/3 32/62/3 33/63/3 36/64/3 37/65/3 15/66/3 14/67/3
f 19/68/7 20/69/7 24/70/7 23/71/7 26/72/7 59/73/7 60/74/7
f 38/75/8 25/76/8 55/77/8 57/78/8
f 20/55/9 16/52/9 21/33/9 24/79/9
f 16/80/10 15/81/10 62/82/10 61/83/10 25/84/10 22/85/10 21/86/10
f 77/87/11 39/88/11 43/89/11 81/90/11
f 25/91/12 38/92/12 35/93/12 34/94/12 31/95/12 29/96/12 27/97/12 26/98/12 23/99/12 22/100/12
f 28/101/4 19/36/4 40/102/4 39/103/4
f 65/104/13 30/105/13 28/106/13 63/107/13
f 67/108/14 32/109/14 47/110/14 85/111/14
f 69/112/15 33/113/15 32/114/15 67/115/15
f 70/116/16 34/117/16 53/118/16 88/119/16
f 73/120/17 37/121/17 36/122/17 71/123/17
f 63/124/18 28/125/18 39/126/18 77/127/18
f 26/128/19 27/129/19 42/130/19 41/131/19
f 59/132/4 26/133/4 41/134/4 75/135/4
f 81/136/20 43/137/20 44/138/20 80/139/20
f 75/140/21 41/141/21 45/142/21 79/143/21
f 41/144/22 42/145/22 46/146/22 45/147/22
f 39/148/3 40/149/3 44/138/3 43/150/3
f 85/151/23 47/152/23 48/153/23 83/154/23
f 29/155/24 31/156/24 50/157/24 49/158/24
f 32/159/3 30/105/3 48/153/3 47/160/3
f 66/161/25 29/162/25 49/163/25 84/164/25
f 89/165/23 51/166/23 52/167/23 87/168/23
f 36/169/26 33/113/26 52/167/26 51/170/26
f 71/171/27 36/172/27 51/173/27 89/174/27
f 34/175/28 35/176/28 54/177/28 53/178/28
f 91/179/13 94/180/13 57/181/13 55/182/13
f 62/183/2 15/48/2 56/184/2 92/185/2
f 74/186/29 38/187/29 57/181/29 94/188/29
f 15/51/3 37/121/3 58/189/3 56/190/3
f 37/191/29 73/192/29 93/193/29 58/194/29
f 73/120/6 74/195/6 108/196/6 107/197/6
f 25/198/2 61/199/2 91/200/2 55/182/2
f 61/201/2 62/202/2 92/203/2 91/204/2
f 56/205/13 58/206/13 93/193/13 92/185/13
f 92/207/13 93/208/13 94/209/13 91/204/13
f 35/210/27 72/211/27 90/212/27 54/213/27
f 72/214/30 71/215/30 103/216/30 104/217/30
f 54/218/31 90/219/31 88/220/31 53/178/31
f 90/221/32 89/222/32 87/223/32 88/119/32
f 30/224/25 65/225/25 83/226/25 48/227/25
f 65/104/25 66/228/25 84/229/25 83/154/25
f 50/230/33 86/231/33 84/229/33 49/158/33
f 86/232/34 85/233/34 83/226/34 84/164/34
f 40/234/21 76/235/21 80/236/21 44/237/21
f 76/238/21 75/239/21 79/240/21 80/139/21
f 46/241/35 82/242/35 79/240/35 45/147/35
f 82/243/36 81/244/36 80/236/36 79/143/36
f 19/245/4 60/246/4 76/247/4 40/248/4
f 60/249/4 59/250/4 75/251/4 76/252/4
f 27/253/18 64/254/18 78/255/18 42/256/18
f 64/257/18 63/258/18 77/259/18 78/260/18
f 38/75/37 74/195/37 72/261/37 35/262/37
f 74/186/38 73/192/38 71/263/38 72/264/38
f 33/265/16 69/266/16 87/223/16 52/267/16
f 69/112/16 70/268/16 88/220/16 87/168/16
f 34/175/39 70/268/39 68/269/39 31/270/39
f 70/116/40 69/266/40 67/271/40 68/272/40
f 31/273/14 68/274/14 86/275/14 50/276/14
f 68/277/41 67/278/41 95/279/41 96/280/41
f 29/155/13 66/228/13 64/281/13 27/282/13
f 66/161/13 65/225/13 63/283/13 64/284/13
f 42/285/11 78/286/11 82/287/11 46/288/11
f 82/243/42 78/286/42 100/289/42 102/290/42
f 96/291/14 95/292/14 97/293/14 98/294/14
f 86/232/43 68/274/43 96/295/43 98/294/43
f 85/151/44 86/231/44 98/296/44 97/297/44
f 67/108/45 85/233/45 97/293/45 95/298/45
f 100/299/11 99/300/11 101/301/11 102/290/11
f 77/87/46 81/244/46 101/301/46 99/302/46
f 81/136/47 82/242/47 102/303/47 101/304/47
f 78/305/48 77/306/48 99/307/48 100/308/48
f 104/309/27 103/310/27 105/311/27 106/312/27
f 89/165/49 90/219/49 106/313/49 105/314/49
f 90/221/50 72/211/50 104/315/50 106/312/50
f 71/171/51 89/222/51 105/311/51 103/316/51
f 107/317/29 108/318/29 110/319/29 109/320/29
f 74/186/52 94/180/52 110/319/52 108/321/52
f 94/322/4 93/208/4 109/323/4 110/324/4
f 93/325/53 73/192/53 107/326/53 109/320/53
