# Blender v2.79 (sub 0) OBJ File: ''
# www.blender.org
mtllib carruselBase.mtl
o Cylinder
v 0.000000 -0.169776 -1.000000
v 0.000000 0.169776 -1.000000
v 0.195090 -0.169776 -0.980785
v 0.195090 0.169776 -0.980785
v 0.382683 -0.169776 -0.923880
v 0.382683 0.169776 -0.923880
v 0.555570 -0.169776 -0.831470
v 0.555570 0.169776 -0.831470
v 0.707107 -0.169776 -0.707107
v 0.707107 0.169776 -0.707107
v 0.831470 -0.169776 -0.555570
v 0.831470 0.169776 -0.555570
v 0.923880 -0.169776 -0.382683
v 0.923880 0.169776 -0.382683
v 0.980785 -0.169776 -0.195090
v 0.980785 0.169776 -0.195090
v 1.000000 -0.169776 -0.000000
v 1.000000 0.169776 -0.000000
v 0.980785 -0.169776 0.195090
v 0.980785 0.169776 0.195090
v 0.923880 -0.169776 0.382683
v 0.923880 0.169776 0.382683
v 0.831470 -0.169776 0.555570
v 0.831470 0.169776 0.555570
v 0.707107 -0.169776 0.707107
v 0.707107 0.169776 0.707107
v 0.555570 -0.169776 0.831470
v 0.555570 0.169776 0.831470
v 0.382683 -0.169776 0.923880
v 0.382683 0.169776 0.923880
v 0.195090 -0.169776 0.980785
v 0.195090 0.169776 0.980785
v -0.000000 -0.169776 1.000000
v -0.000000 0.169776 1.000000
v -0.195091 -0.169776 0.980785
v -0.195091 0.169776 0.980785
v -0.382684 -0.169776 0.923879
v -0.382684 0.169776 0.923879
v -0.555571 -0.169776 0.831469
v -0.555571 0.169776 0.831469
v -0.707107 -0.169776 0.707106
v -0.707107 0.169776 0.707106
v -0.831470 -0.169776 0.555570
v -0.831470 0.169776 0.555570
v -0.923880 -0.169776 0.382683
v -0.923880 0.169776 0.382683
v -0.980785 -0.169776 0.195089
v -0.980785 0.169776 0.195089
v -1.000000 -0.169776 -0.000001
v -1.000000 0.169776 -0.000001
v -0.980785 -0.169776 -0.195091
v -0.980785 0.169776 -0.195091
v -0.923879 -0.169776 -0.382684
v -0.923879 0.169776 -0.382684
v -0.831469 -0.169776 -0.555571
v -0.831469 0.169776 -0.555571
v -0.707106 -0.169776 -0.707108
v -0.707106 0.169776 -0.707108
v -0.555569 -0.169776 -0.831470
v -0.555569 0.169776 -0.831470
v -0.382682 -0.169776 -0.923880
v -0.382682 0.169776 -0.923880
v -0.195089 -0.169776 -0.980786
v -0.195089 0.169776 -0.980786
vt 0.000000 0.000000
vt 1.000000 0.000000
vt 1.000000 1.000000
vt 0.000000 1.000000
vt 0.000000 0.000000
vt 1.000000 0.000000
vt 1.000000 1.000000
vt 0.000000 1.000000
vt 0.000000 0.000000
vt 1.000000 0.000000
vt 1.000000 1.000000
vt 0.000000 1.000000
vt 0.000000 0.000000
vt 1.000000 0.000000
vt 1.000000 1.000000
vt 0.000000 1.000000
vt 0.000000 0.000000
vt 1.000000 0.000000
vt 1.000000 1.000000
vt 0.000000 1.000000
vt 0.000000 0.000000
vt 1.000000 0.000000
vt 1.000000 1.000000
vt 0.000000 1.000000
vt 0.000000 0.000000
vt 1.000000 0.000000
vt 1.000000 1.000000
vt 0.000000 1.000000
vt 0.000000 0.000000
vt 1.000000 0.000000
vt 1.000000 1.000000
vt 0.000000 1.000000
vt 0.000000 0.000000
vt 1.000000 0.000000
vt 1.000000 1.000000
vt 0.000000 1.000000
vt 0.000000 0.000000
vt 1.000000 0.000000
vt 1.000000 1.000000
vt 0.000000 1.000000
vt 0.000000 0.000000
vt 1.000000 0.000000
vt 1.000000 1.000000
vt 0.000000 1.000000
vt 0.000000 0.000000
vt 1.000000 0.000000
vt 1.000000 1.000000
vt 0.000000 1.000000
vt 0.000000 0.000000
vt 1.000000 0.000000
vt 1.000000 1.000000
vt 0.000000 1.000000
vt 0.000000 0.000000
vt 1.000000 0.000000
vt 1.000000 1.000000
vt 0.000000 1.000000
vt 0.000000 0.000000
vt 1.000000 0.000000
vt 1.000000 1.000000
vt 0.000000 1.000000
vt 0.000000 0.000000
vt 1.000000 0.000000
vt 1.000000 1.000000
vt 0.000000 1.000000
vt 0.000000 0.000000
vt 0.000000 0.000000
vt 0.000000 0.000000
vt 0.000000 0.000000
vt 0.000000 0.000000
vt 0.000000 0.000000
vt 0.000000 0.000000
vt 0.000000 0.000000
vt 0.000000 0.000000
vt 0.000000 0.000000
vt 0.000000 0.000000
vt 0.000000 0.000000
vt 0.000000 0.000000
vt 0.000000 0.000000
vt 0.000000 0.000000
vt 0.000000 0.000000
vt 0.000000 0.000000
vt 0.000000 0.000000
vt 0.000000 0.000000
vt 0.000000 0.000000
vt 0.000000 0.000000
vt 0.000000 0.000000
vt 0.000000 0.000000
vt 0.000000 0.000000
vt 0.000000 0.000000
vt 0.000000 0.000000
vt 0.000000 0.000000
vt 0.000000 0.000000
vt 0.000000 0.000000
vt 0.000000 0.000000
vt 0.000000 0.000000
vt 0.000000 0.000000
vt 0.000000 0.000000
vt 0.000000 0.000000
vt 0.000000 0.000000
vt 0.000000 0.000000
vt 0.000000 0.000000
vt 0.000000 0.000000
vt 0.000000 0.000000
vt 0.000000 0.000000
vt 0.000000 0.000000
vt 0.000000 0.000000
vt 0.000000 0.000000
vt 0.000000 0.000000
vt 0.000000 0.000000
vt 0.000000 0.000000
vt 0.000000 0.000000
vt 0.000000 0.000000
vn 0.2903 0.0000 -0.9569
vn 0.6344 0.0000 -0.7730
vn 0.8819 0.0000 -0.4714
vn 0.9952 0.0000 -0.0980
vn 0.9569 0.0000 0.2903
vn 0.7730 0.0000 0.6344
vn 0.4714 0.0000 0.8819
vn 0.0980 0.0000 0.9952
vn -0.2903 0.0000 0.9569
vn -0.6344 0.0000 0.7730
vn -0.8819 0.0000 0.4714
vn -0.9952 0.0000 0.0980
vn -0.9569 0.0000 -0.2903
vn -0.7730 0.0000 -0.6344
vn -0.4714 0.0000 -0.8819
vn -0.0980 0.0000 -0.9952
vn 0.0980 0.0000 -0.9952
vn 0.4714 0.0000 -0.8819
vn 0.7730 0.0000 -0.6344
vn 0.9569 0.0000 -0.2903
vn 0.9952 0.0000 0.0980
vn 0.8819 0.0000 0.4714
vn 0.6344 0.0000 0.7730
vn 0.2903 0.0000 0.9569
vn -0.0980 0.0000 0.9952
vn -0.4714 0.0000 0.8819
vn -0.7730 0.0000 0.6344
vn -0.9569 0.0000 0.2903
vn -0.9952 0.0000 -0.0980
vn -0.8819 0.0000 -0.4714
vn -0.6344 0.0000 -0.7730
vn 0.0000 1.0000 0.0000
vn -0.2903 0.0000 -0.9569
vn 0.0000 -1.0000 0.0000
usemtl None
s off
f 3/1/1 4/2/1 6/3/1 5/4/1
f 7/5/2 8/6/2 10/7/2 9/8/2
f 11/9/3 12/10/3 14/11/3 13/12/3
f 15/13/4 16/14/4 18/15/4 17/16/4
f 19/17/5 20/18/5 22/19/5 21/20/5
f 23/21/6 24/22/6 26/23/6 25/24/6
f 27/25/7 28/26/7 30/27/7 29/28/7
f 31/29/8 32/30/8 34/31/8 33/32/8
f 35/33/9 36/34/9 38/35/9 37/36/9
f 39/37/10 40/38/10 42/39/10 41/40/10
f 43/41/11 44/42/11 46/43/11 45/44/11
f 47/45/12 48/46/12 50/47/12 49/48/12
f 51/49/13 52/50/13 54/51/13 53/52/13
f 55/53/14 56/54/14 58/55/14 57/56/14
f 59/57/15 60/58/15 62/59/15 61/60/15
f 63/61/16 64/62/16 2/63/16 1/64/16
usemtl None_NONE
f 1/65/17 2/66/17 4/67/17 3/1/17
f 5/68/18 6/69/18 8/70/18 7/5/18
f 9/71/19 10/72/19 12/73/19 11/9/19
f 13/74/20 14/75/20 16/76/20 15/13/20
f 17/77/21 18/78/21 20/79/21 19/17/21
f 21/80/22 22/81/22 24/82/22 23/21/22
f 25/83/23 26/84/23 28/85/23 27/25/23
f 29/86/24 30/87/24 32/88/24 31/29/24
f 33/89/25 34/90/25 36/91/25 35/33/25
f 37/92/26 38/93/26 40/94/26 39/37/26
f 41/95/27 42/96/27 44/97/27 43/41/27
f 45/98/28 46/99/28 48/100/28 47/45/28
f 49/101/29 50/102/29 52/103/29 51/49/29
f 53/104/30 54/105/30 56/106/30 55/53/30
f 57/107/31 58/108/31 60/109/31 59/57/31
f 4/67/32 2/66/32 64/110/32 62/111/32 60/109/32 58/108/32 56/106/32 54/105/32 52/103/32 50/102/32 48/100/32 46/99/32 44/97/32 42/96/32 40/94/32 38/93/32 36/91/32 34/90/32 32/88/32 30/87/32 28/85/32 26/84/32 24/82/32 22/81/32 20/79/32 18/78/32 16/76/32 14/75/32 12/73/32 10/72/32 8/70/32 6/69/32
f 61/112/33 62/111/33 64/110/33 63/61/33
f 1/65/34 3/1/34 5/68/34 7/5/34 9/71/34 11/9/34 13/74/34 15/13/34 17/77/34 19/17/34 21/80/34 23/21/34 25/83/34 27/25/34 29/86/34 31/29/34 33/89/34 35/33/34 37/92/34 39/37/34 41/95/34 43/41/34 45/98/34 47/45/34 49/101/34 51/49/34 53/104/34 55/53/34 57/107/34 59/57/34 61/112/34 63/61/34
