# Blender v2.79 (sub 0) OBJ File: ''
# www.blender.org
mtllib PUESTO.mtl
o Plane.003
v 5.112414 4.011435 -4.220670
v 5.090131 4.011950 -0.058573
v -5.083696 3.998745 -4.236394
v -5.108906 4.023565 -0.057723
v 0.077943 3.725273 -4.045928
v 5.055917 4.012107 -2.045802
v 0.077942 4.042833 -0.009243
v -5.108466 4.018530 -2.045803
v 0.077943 3.573892 -2.045802
v 2.535333 3.816163 -4.095536
v 5.078336 4.013501 -1.095471
v -2.379448 4.000975 -0.113808
v -5.050683 3.999575 -2.996134
v -2.379448 3.825115 -4.025432
v 5.039658 4.031482 -2.996133
v 2.535333 4.023871 -0.003242
v -5.127428 4.009318 -1.095472
v -2.379448 3.654311 -2.045803
v 2.535333 3.684417 -2.045802
v 0.077943 3.575604 -2.996134
v 0.077943 3.704478 -1.095471
v 2.535333 3.707027 -1.095471
v 2.535333 3.678577 -2.996133
v -2.379448 3.714484 -2.996134
v -2.379448 3.679520 -1.095471
vt 0.746622 0.746622
vt 0.993243 0.746622
vt 0.993243 0.993243
vt 0.746622 0.993243
vt 0.253378 0.746622
vt 0.500000 0.746622
vt 0.500000 0.993243
vt 0.253378 0.993243
vt 0.253378 0.253378
vt 0.500000 0.253378
vt 0.500000 0.500000
vt 0.253378 0.500000
vt 0.746622 0.253378
vt 0.993243 0.253378
vt 0.993243 0.500000
vt 0.746622 0.500000
vt 0.500000 0.006757
vt 0.746622 0.006757
vt 0.993243 0.006757
vt 0.006757 0.253378
vt 0.006757 0.500000
vt 0.006757 0.006757
vt 0.253378 0.006757
vt 0.006757 0.746622
vt 0.006757 0.993243
vn -0.0617 -0.9845 0.1642
vn -0.1193 -0.9925 -0.0252
vn 0.0434 -0.9991 0.0022
vn -0.0035 -0.9576 0.2880
vn 0.0229 -0.9965 0.0803
vn 0.1243 -0.9922 0.0111
vn 0.0586 -0.9876 0.1459
vn 0.0377 -0.9905 -0.1324
vn 0.1060 -0.9933 -0.0469
vn 0.1342 -0.9909 -0.0082
vn -0.0831 -0.9954 -0.0470
vn -0.0487 -0.9911 -0.1241
vn -0.0446 -0.9985 -0.0325
vn -0.1257 -0.9920 0.0071
vn -0.0112 -0.9966 0.0817
vn 0.0065 -0.9527 0.3040
usemtl None
s off
f 25/1/1 12/2/1 4/3/1 17/4/1
f 24/5/2 18/6/2 8/7/2 13/8/2
f 23/9/3 19/10/3 9/11/3 20/12/3
f 22/13/4 16/14/4 7/15/4 21/16/4
f 19/10/5 22/13/5 21/16/5 9/11/5
f 6/17/6 11/18/6 22/13/6 19/10/6
f 11/18/7 2/19/7 16/14/7 22/13/7
f 10/20/8 23/9/8 20/12/8 5/21/8
f 1/22/9 15/23/9 23/9/9 10/20/9
f 15/23/10 6/17/10 19/10/10 23/9/10
f 14/24/11 24/5/11 13/8/11 3/25/11
f 5/21/12 20/12/12 24/5/12 14/24/12
f 20/12/13 9/11/13 18/6/13 24/5/13
f 18/6/14 25/1/14 17/4/14 8/7/14
f 9/11/15 21/16/15 25/1/15 18/6/15
f 21/16/16 7/15/16 12/2/16 25/1/16
o Plane.002
v -5.035028 3.915468 -0.010556
v -5.032066 0.016081 -0.005958
v 5.069877 3.936237 0.062662
v 5.139849 0.061844 0.003324
v -0.000000 3.915468 0.084381
v -4.914781 2.014806 -0.209021
v 0.000000 0.114137 0.065168
v 5.114303 2.014806 0.049348
v -0.000000 2.014806 0.266793
v -2.457391 3.915468 0.150296
v -4.914781 1.064475 0.004637
v 2.457391 0.129992 0.150296
v 5.046103 2.965137 0.220611
v 2.457391 3.915468 0.079627
v -4.914781 2.965137 -0.027108
v -2.457391 0.114143 0.150296
v 5.091393 1.064475 0.304064
v 2.457391 2.014806 0.312149
v -2.457391 2.014806 0.282042
v -0.000000 2.965137 0.320735
v -0.000000 1.064475 0.261981
v -2.457391 1.064475 0.312255
v -2.457391 2.965137 0.287882
v 2.457391 2.965137 0.251976
v 2.457391 1.064475 0.300681
vt 1.013364 1.013364
vt 1.526728 1.013364
vt 1.526728 1.526728
vt 1.013364 1.526728
vt -0.013364 1.013364
vt 0.500000 1.013364
vt 0.500000 1.526728
vt -0.013364 1.526728
vt -0.013364 -0.013364
vt 0.500000 -0.013364
vt 0.500000 0.500000
vt -0.013364 0.500000
vt 1.013364 -0.013364
vt 1.526728 -0.013364
vt 1.526728 0.500000
vt 1.013364 0.500000
vt 0.500000 -0.526728
vt 1.013364 -0.526728
vt 1.526728 -0.526728
vt -0.526728 -0.013364
vt -0.526728 0.500000
vt -0.526728 -0.526728
vt -0.013364 -0.526728
vt -0.526728 1.013364
vt -0.526728 1.526728
vn 0.0234 -0.2262 0.9738
vn 0.0559 -0.0563 0.9969
vn -0.0036 -0.0314 0.9995
vn 0.0271 -0.1854 0.9823
vn 0.0133 0.0134 0.9998
vn -0.1591 0.1256 0.9792
vn -0.0899 -0.0804 0.9927
vn 0.0066 0.1930 0.9812
vn -0.0939 0.0574 0.9939
vn -0.1611 -0.0970 0.9822
vn 0.0085 0.1693 0.9855
vn 0.0146 0.2102 0.9775
vn 0.0048 0.0033 1.0000
vn 0.0486 0.1262 0.9908
vn -0.0171 -0.0086 0.9998
vn -0.0242 -0.1811 0.9832
usemtl None
s off
f 50/26/17 37/27/17 29/28/17 42/29/17
f 49/30/18 43/31/18 33/32/18 38/33/18
f 48/34/19 44/35/19 34/36/19 45/37/19
f 47/38/20 41/39/20 32/40/20 46/41/20
f 44/35/21 47/38/21 46/41/21 34/36/21
f 31/42/22 36/43/22 47/38/22 44/35/22
f 36/43/23 27/44/23 41/39/23 47/38/23
f 35/45/24 48/34/24 45/37/24 30/46/24
f 26/47/25 40/48/25 48/34/25 35/45/25
f 40/48/26 31/42/26 44/35/26 48/34/26
f 39/49/27 49/30/27 38/33/27 28/50/27
f 30/46/28 45/37/28 49/30/28 39/49/28
f 45/37/29 34/36/29 43/31/29 49/30/29
f 43/31/30 50/26/30 42/29/30 33/32/30
f 34/36/31 46/41/31 50/26/31 43/31/31
f 46/41/32 32/40/32 37/27/32 50/26/32
o Plane.001
v -5.160923 0.114143 -0.046241
v -5.166364 3.915468 -0.093638
v -5.208191 0.093375 -3.995514
v -5.155530 3.915468 -4.029518
v -5.216770 0.114143 -2.030872
v -5.285055 2.014806 -0.093638
v -5.131642 3.915468 -2.030872
v -5.285672 2.014806 -3.968106
v -5.333267 2.014806 -2.030872
v -5.216770 0.114143 -1.062255
v -5.236761 2.965137 -0.093638
v -5.216770 3.915468 -2.999489
v -5.287085 1.064475 -3.968106
v -5.216770 0.114143 -2.999489
v -5.222519 1.064475 -0.093638
v -5.216770 3.915468 -1.062255
v -5.370538 2.965137 -4.005897
v -5.378623 2.014806 -2.999489
v -5.348516 2.014806 -1.062255
v -5.387209 1.064475 -2.030872
v -5.328455 2.965137 -2.030872
v -5.378729 2.965137 -1.062255
v -5.354356 1.064475 -1.062255
v -5.318449 1.064475 -2.999489
v -5.367155 2.965137 -2.999489
vt 0.748672 0.748672
vt 0.997345 0.748672
vt 0.997345 0.997344
vt 0.748672 0.997344
vt 0.251328 0.748672
vt 0.500000 0.748672
vt 0.500000 0.997345
vt 0.251328 0.997345
vt 0.251328 0.251328
vt 0.500000 0.251328
vt 0.500000 0.500000
vt 0.251328 0.500000
vt 0.748672 0.251328
vt 0.997345 0.251328
vt 0.997345 0.500000
vt 0.748672 0.500000
vt 0.500000 0.002656
vt 0.748672 0.002656
vt 0.997345 0.002655
vt 0.002656 0.251328
vt 0.002656 0.500000
vt 0.002656 0.002656
vt 0.251328 0.002656
vt 0.002656 0.748672
vt 0.002655 0.997345
vn -0.9817 0.1884 -0.0279
vn -0.9975 -0.0308 -0.0640
vn -0.9995 0.0314 0.0091
vn -0.9803 0.1850 -0.0685
vn -0.9993 -0.0134 -0.0338
vn -0.9944 0.0095 0.1054
vn -0.9878 0.1208 0.0981
vn -0.9870 -0.1600 0.0167
vn -0.9904 -0.1015 0.0937
vn -0.9945 -0.0297 0.1003
vn -0.9955 -0.0933 -0.0193
vn -0.9893 -0.1416 -0.0351
vn -0.9999 -0.0033 -0.0121
vn -0.9982 -0.0394 -0.0453
vn -0.9990 0.0086 0.0433
vn -0.9818 0.1793 0.0628
usemtl None
s off
f 75/51/33 62/52/33 54/53/33 67/54/33
f 74/55/34 68/56/34 58/57/34 63/58/34
f 73/59/35 69/60/35 59/61/35 70/62/35
f 72/63/36 66/64/36 57/65/36 71/66/36
f 69/60/37 72/63/37 71/66/37 59/61/37
f 56/67/38 61/68/38 72/63/38 69/60/38
f 61/68/39 52/69/39 66/64/39 72/63/39
f 60/70/40 73/59/40 70/62/40 55/71/40
f 51/72/41 65/73/41 73/59/41 60/70/41
f 65/73/42 56/67/42 69/60/42 73/59/42
f 64/74/43 74/55/43 63/58/43 53/75/43
f 55/71/44 70/62/44 74/55/44 64/74/44
f 70/62/45 59/61/45 68/56/45 74/55/45
f 68/56/46 75/51/46 67/54/46 58/57/46
f 59/61/47 71/66/47 75/51/47 68/56/47
f 71/66/48 57/65/48 62/52/48 75/51/48
o Plane
v 5.142796 3.915468 -0.093638
v 5.159916 0.114143 -0.093638
v 5.147736 3.936237 -4.014616
v 5.163291 0.114143 -4.029518
v 5.242807 3.915468 -2.030872
v 5.371034 2.014806 -0.093638
v 5.242807 0.114143 -2.030872
v 5.384067 2.014806 -3.968106
v 5.359304 2.014806 -2.030872
v 5.242807 3.915468 -1.062255
v 5.380381 1.064475 -0.093638
v 5.242807 0.114143 -2.999489
v 5.378923 2.965137 -3.968106
v 5.242807 3.915468 -2.999489
v 5.248556 2.965137 -0.093638
v 5.242807 0.114143 -1.062255
v 5.396574 1.064475 -4.005897
v 5.404659 2.014806 -2.999489
v 5.374553 2.014806 -1.062255
v 5.413246 2.965137 -2.030872
v 5.354492 1.064475 -2.030872
v 5.404766 1.064475 -1.062255
v 5.380393 2.965137 -1.062255
v 5.344486 2.965137 -2.999489
v 5.393191 1.064475 -2.999489
vt 0.748672 0.748672
vt 0.997345 0.748672
vt 0.997345 0.997344
vt 0.748672 0.997344
vt 0.251328 0.748672
vt 0.500000 0.748672
vt 0.500000 0.997345
vt 0.251328 0.997345
vt 0.251328 0.251328
vt 0.500000 0.251328
vt 0.500000 0.500000
vt 0.251328 0.500000
vt 0.748672 0.251328
vt 0.997345 0.251328
vt 0.997345 0.500000
vt 0.748672 0.500000
vt 0.500000 0.002656
vt 0.748672 0.002656
vt 0.997345 0.002655
vt 0.002656 0.251328
vt 0.002656 0.500000
vt 0.002656 0.002656
vt 0.251328 0.002656
vt 0.002656 0.748672
vt 0.002655 0.997345
vn 0.9797 -0.1973 -0.0366
vn 0.9994 0.0343 0.0071
vn 0.9995 -0.0314 0.0091
vn 0.9895 -0.1425 -0.0257
vn 0.9993 0.0134 -0.0338
vn 0.9997 0.0208 0.0144
vn 0.9789 -0.1970 0.0542
vn 0.9870 0.1600 0.0167
vn 0.9850 0.1261 0.1179
vn 0.9957 0.0611 0.0696
vn 0.9850 0.1700 -0.0283
vn 0.9893 0.1416 -0.0351
vn 0.9999 0.0033 -0.0121
vn 1.0000 0.0007 -0.0087
vn 0.9990 -0.0086 0.0433
vn 0.9904 -0.1366 0.0198
usemtl None
s off
f 100/76/49 87/77/49 79/78/49 92/79/49
f 99/80/50 93/81/50 83/82/50 88/83/50
f 98/84/51 94/85/51 84/86/51 95/87/51
f 97/88/52 91/89/52 82/90/52 96/91/52
f 94/85/53 97/88/53 96/91/53 84/86/53
f 81/92/54 86/93/54 97/88/54 94/85/54
f 86/93/55 77/94/55 91/89/55 97/88/55
f 85/95/56 98/84/56 95/87/56 80/96/56
f 76/97/57 90/98/57 98/84/57 85/95/57
f 90/98/58 81/92/58 94/85/58 98/84/58
f 89/99/59 99/80/59 88/83/59 78/100/59
f 80/96/60 95/87/60 99/80/60 89/99/60
f 95/87/61 84/86/61 93/81/61 99/80/61
f 93/81/62 100/76/62 92/79/62 83/82/62
f 84/86/63 96/91/63 100/76/63 93/81/63
f 96/91/64 82/90/64 87/77/64 100/76/64
o Cube.006_Cube.007
v 5.013679 3.890551 -4.251180
v 5.013679 3.890551 -0.011180
v 5.013679 3.990309 -4.251180
v 5.013679 3.990309 -0.011180
v 5.146321 3.890551 -4.251180
v 5.146321 3.890551 -0.011180
v 5.146321 3.990309 -4.251180
v 5.146321 3.990309 -0.011180
vt 0.002090 0.002090
vt 0.997910 0.002090
vt 0.997910 0.997910
vt 0.002090 0.997910
vt 0.002090 0.002090
vt 0.997910 0.002090
vt 0.997910 0.997910
vt 0.002090 0.997910
vt 0.002090 0.002090
vt 0.997910 0.002090
vt 0.997910 0.997910
vt 0.002090 0.997910
vt 0.002090 0.002090
vt 0.997910 0.002090
vt 0.997910 0.997910
vt 0.002090 0.997910
vt 0.997910 0.002090
vt 0.997910 0.997910
vt 0.002090 0.002090
vt 0.002090 0.997910
vn -1.0000 0.0000 0.0000
vn 0.0000 1.0000 0.0000
vn 1.0000 0.0000 0.0000
vn 0.0000 -1.0000 0.0000
vn 0.0000 0.0000 -1.0000
vn 0.0000 0.0000 1.0000
usemtl None_METAL1.jpg
s off
f 101/101/65 102/102/65 104/103/65 103/104/65
f 103/105/66 104/106/66 108/107/66 107/108/66
f 107/109/67 108/110/67 106/111/67 105/112/67
f 105/113/68 106/114/68 102/115/68 101/116/68
f 103/105/69 107/117/69 105/118/69 101/116/69
f 108/119/70 104/106/70 102/115/70 106/120/70
o Cube.005_Cube.006
v -5.146321 3.890551 -4.251180
v -5.146321 3.890551 -0.011180
v -5.146321 3.990309 -4.251180
v -5.146321 3.990309 -0.011180
v -5.013679 3.890551 -4.251180
v -5.013679 3.890551 -0.011180
v -5.013679 3.990309 -4.251180
v -5.013679 3.990309 -0.011180
vt 0.002090 0.002090
vt 0.997910 0.002090
vt 0.997910 0.997910
vt 0.002090 0.997910
vt 0.002090 0.002090
vt 0.997910 0.002090
vt 0.997910 0.997910
vt 0.002090 0.997910
vt 0.002090 0.002090
vt 0.997910 0.002090
vt 0.997910 0.997910
vt 0.002090 0.997910
vt 0.002090 0.002090
vt 0.997910 0.002090
vt 0.997910 0.997910
vt 0.002090 0.997910
vt 0.997910 0.002090
vt 0.997910 0.997910
vt 0.002090 0.002090
vt 0.002090 0.997910
vn -1.0000 0.0000 0.0000
vn 0.0000 1.0000 0.0000
vn 1.0000 0.0000 0.0000
vn 0.0000 -1.0000 0.0000
vn 0.0000 0.0000 -1.0000
vn 0.0000 0.0000 1.0000
usemtl None_METAL1.jpg
s off
f 109/121/71 110/122/71 112/123/71 111/124/71
f 111/125/72 112/126/72 116/127/72 115/128/72
f 115/129/73 116/130/73 114/131/73 113/132/73
f 113/133/74 114/134/74 110/135/74 109/136/74
f 111/125/75 115/137/75 113/138/75 109/136/75
f 116/139/76 112/126/76 110/135/76 114/140/76
o Cube.004_Cube.005
v -5.146321 0.000000 -3.950121
v -5.146321 4.000000 -3.950121
v -5.146321 0.000000 -4.049879
v -5.146321 4.000000 -4.049879
v -5.013679 0.000000 -3.950121
v -5.013679 4.000000 -3.950121
v -5.013679 0.000000 -4.049879
v -5.013679 4.000000 -4.049879
vt 0.002090 0.002090
vt 0.997910 0.002090
vt 0.997910 0.997910
vt 0.002090 0.997910
vt 0.002090 0.002090
vt 0.997910 0.002090
vt 0.997910 0.997910
vt 0.002090 0.997910
vt 0.002090 0.002090
vt 0.997910 0.002090
vt 0.997910 0.997910
vt 0.002090 0.997910
vt 0.002090 0.002090
vt 0.997910 0.002090
vt 0.997910 0.997910
vt 0.002090 0.997910
vt 0.997910 0.002090
vt 0.997910 0.997910
vt 0.002090 0.002090
vt 0.002090 0.997910
vn -1.0000 0.0000 0.0000
vn 0.0000 0.0000 -1.0000
vn 1.0000 0.0000 0.0000
vn 0.0000 0.0000 1.0000
vn 0.0000 -1.0000 0.0000
vn 0.0000 1.0000 0.0000
usemtl None_METAL1.jpg
s off
f 117/141/77 118/142/77 120/143/77 119/144/77
f 119/145/78 120/146/78 124/147/78 123/148/78
f 123/149/79 124/150/79 122/151/79 121/152/79
f 121/153/80 122/154/80 118/155/80 117/156/80
f 119/145/81 123/157/81 121/158/81 117/156/81
f 124/159/82 120/146/82 118/155/82 122/160/82
o Cube.003_Cube.004
v 5.013679 0.000000 -3.950121
v 5.013679 4.000000 -3.950121
v 5.013679 0.000000 -4.049879
v 5.013679 4.000000 -4.049879
v 5.146321 0.000000 -3.950121
v 5.146321 4.000000 -3.950121
v 5.146321 0.000000 -4.049879
v 5.146321 4.000000 -4.049879
vt 0.002090 0.002090
vt 0.997910 0.002090
vt 0.997910 0.997910
vt 0.002090 0.997910
vt 0.002090 0.002090
vt 0.997910 0.002090
vt 0.997910 0.997910
vt 0.002090 0.997910
vt 0.002090 0.002090
vt 0.997910 0.002090
vt 0.997910 0.997910
vt 0.002090 0.997910
vt 0.002090 0.002090
vt 0.997910 0.002090
vt 0.997910 0.997910
vt 0.002090 0.997910
vt 0.997910 0.002090
vt 0.997910 0.997910
vt 0.002090 0.002090
vt 0.002090 0.997910
vn -1.0000 0.0000 0.0000
vn 0.0000 0.0000 -1.0000
vn 1.0000 0.0000 0.0000
vn 0.0000 0.0000 1.0000
vn 0.0000 -1.0000 0.0000
vn 0.0000 1.0000 0.0000
usemtl None_METAL1.jpg
s off
f 125/161/83 126/162/83 128/163/83 127/164/83
f 127/165/84 128/166/84 132/167/84 131/168/84
f 131/169/85 132/170/85 130/171/85 129/172/85
f 129/173/86 130/174/86 126/175/86 125/176/86
f 127/165/87 131/177/87 129/178/87 125/176/87
f 132/179/88 128/166/88 126/175/88 130/180/88
o Cube.002_Cube.003
v -5.130378 3.997720 -0.006914
v 5.130378 3.997720 -0.006914
v -5.130378 3.997720 -0.106672
v 5.130378 3.997720 -0.106672
v -5.130378 3.865079 -0.006914
v 5.130378 3.865078 -0.006914
v -5.130378 3.865079 -0.106672
v 5.130378 3.865078 -0.106672
vt 0.002090 0.002090
vt 0.997910 0.002090
vt 0.997910 0.997910
vt 0.002090 0.997910
vt 0.002090 0.002090
vt 0.997910 0.002090
vt 0.997910 0.997910
vt 0.002090 0.997910
vt 0.002090 0.002090
vt 0.997910 0.002090
vt 0.997910 0.997910
vt 0.002090 0.997910
vt 0.002090 0.002090
vt 0.997910 0.002090
vt 0.997910 0.997910
vt 0.002090 0.997910
vt 0.997910 0.002090
vt 0.997910 0.997910
vt 0.002090 0.002090
vt 0.002090 0.997910
vn 0.0000 1.0000 0.0000
vn -0.0000 0.0000 -1.0000
vn -0.0000 -1.0000 0.0000
vn -0.0000 0.0000 1.0000
vn -1.0000 0.0000 0.0000
vn 1.0000 0.0000 0.0000
usemtl None_METAL1.jpg
s off
f 133/181/89 134/182/89 136/183/89 135/184/89
f 135/185/90 136/186/90 140/187/90 139/188/90
f 139/189/91 140/190/91 138/191/91 137/192/91
f 137/193/92 138/194/92 134/195/92 133/196/92
f 135/185/93 139/197/93 137/198/93 133/196/93
f 140/199/94 136/186/94 134/195/94 138/200/94
o Cube.001_Cube.002
v -5.146321 0.000000 -0.006914
v -5.146321 4.000000 -0.006914
v -5.146321 0.000000 -0.106672
v -5.146321 4.000000 -0.106672
v -5.013679 0.000000 -0.006914
v -5.013679 4.000000 -0.006914
v -5.013679 0.000000 -0.106672
v -5.013679 4.000000 -0.106672
vt 0.002090 0.002090
vt 0.997910 0.002090
vt 0.997910 0.997910
vt 0.002090 0.997910
vt 0.002090 0.002090
vt 0.997910 0.002090
vt 0.997910 0.997910
vt 0.002090 0.997910
vt 0.002090 0.002090
vt 0.997910 0.002090
vt 0.997910 0.997910
vt 0.002090 0.997910
vt 0.002090 0.002090
vt 0.997910 0.002090
vt 0.997910 0.997910
vt 0.002090 0.997910
vt 0.997910 0.002090
vt 0.997910 0.997910
vt 0.002090 0.002090
vt 0.002090 0.997910
vn -1.0000 0.0000 0.0000
vn 0.0000 0.0000 -1.0000
vn 1.0000 0.0000 0.0000
vn 0.0000 0.0000 1.0000
vn 0.0000 -1.0000 0.0000
vn 0.0000 1.0000 0.0000
usemtl None_METAL1.jpg
s off
f 141/201/95 142/202/95 144/203/95 143/204/95
f 143/205/96 144/206/96 148/207/96 147/208/96
f 147/209/97 148/210/97 146/211/97 145/212/97
f 145/213/98 146/214/98 142/215/98 141/216/98
f 143/205/99 147/217/99 145/218/99 141/216/99
f 148/219/100 144/206/100 142/215/100 146/220/100
o Cube_Cube.001
v 5.013679 0.000000 -0.006914
v 5.013679 4.000000 -0.006914
v 5.013679 0.000000 -0.106672
v 5.013679 4.000000 -0.106672
v 5.146321 0.000000 -0.006914
v 5.146321 4.000000 -0.006914
v 5.146321 0.000000 -0.106672
v 5.146321 4.000000 -0.106672
vt 0.002090 0.002090
vt 0.997910 0.002090
vt 0.997910 0.997910
vt 0.002090 0.997910
vt 0.002090 0.002090
vt 0.997910 0.002090
vt 0.997910 0.997910
vt 0.002090 0.997910
vt 0.002090 0.002090
vt 0.997910 0.002090
vt 0.997910 0.997910
vt 0.002090 0.997910
vt 0.002090 0.002090
vt 0.997910 0.002090
vt 0.997910 0.997910
vt 0.002090 0.997910
vt 0.997910 0.002090
vt 0.997910 0.997910
vt 0.002090 0.002090
vt 0.002090 0.997910
vn -1.0000 0.0000 0.0000
vn 0.0000 0.0000 -1.0000
vn 1.0000 0.0000 0.0000
vn 0.0000 0.0000 1.0000
vn 0.0000 -1.0000 0.0000
vn 0.0000 1.0000 0.0000
usemtl None_METAL1.jpg
s off
f 149/221/101 150/222/101 152/223/101 151/224/101
f 151/225/102 152/226/102 156/227/102 155/228/102
f 155/229/103 156/230/103 154/231/103 153/232/103
f 153/233/104 154/234/104 150/235/104 149/236/104
f 151/225/105 155/237/105 153/238/105 149/236/105
f 156/239/106 152/226/106 150/235/106 154/240/106
