# Blender v2.79 (sub 0) OBJ File: 'tienda.blend'
# www.blender.org
mtllib tienda.mtl
o Plane
v -1.341461 3.376498 -2.328447
v -1.341461 0.003466 -2.328447
v 0.833381 3.376499 -3.584092
v 0.833382 0.003467 -3.584092
vt 0.346562 0.992229
vt 0.346552 -0.012381
vt 0.991584 -0.012388
vt 0.991595 0.992222
vn 0.5000 0.0000 0.8660
usemtl None
s off
f 1/1/1 2/2/1 4/3/1 3/4/1
o Cube
v 1.355550 0.009198 -3.963010
v 1.355550 0.009198 3.963010
v -1.355550 0.009198 3.963009
v -1.355550 0.009198 -3.963012
v 1.355551 3.441778 -3.963008
v 1.355549 3.441778 3.963012
v -1.355551 3.441778 3.963009
v -1.355550 3.441778 -3.963010
v 1.355549 3.441778 3.170408
v 1.355550 0.009198 3.170408
v 1.355550 0.009198 -3.170408
v 1.355551 3.441778 -3.170408
v 1.355549 3.098520 3.963012
v 1.355549 3.098520 3.170408
v 1.355551 3.098520 -3.170408
v 1.355551 3.098520 -3.963008
v 1.355550 1.450881 3.963011
v 1.355550 1.450881 -3.963009
v 1.355550 1.450881 3.170408
v 1.355550 1.450881 -3.170408
v 0.699477 1.450881 -3.170408
v 0.699478 3.098520 -3.170408
v 0.699477 3.098520 3.170408
v 0.699477 1.450881 3.170408
v 1.355551 3.292412 -3.963008
v 1.355549 3.293498 3.963012
v 1.355551 3.292521 -3.170408
v 1.355549 3.293390 3.170408
v 1.564560 3.292412 -3.963008
v 1.564560 3.372011 -3.963008
v 1.564559 3.293498 3.963012
v 1.564559 3.372011 3.963012
v 1.564559 3.372011 3.170408
v 1.564560 3.372011 -3.170408
v 1.564560 3.292521 -3.170408
v 1.564559 3.293390 3.170408
v -1.355551 3.293498 3.963009
v 1.355549 3.293498 4.179162
v 1.355549 3.372011 4.179162
v -1.355551 3.293498 4.179158
v -1.355551 3.372011 4.179158
v -1.355550 3.292413 -3.963010
v 1.355551 3.292412 -4.179152
v 1.355551 3.372011 -4.179152
v -1.355550 3.292413 -4.179154
v -1.355550 3.372011 -4.179153
v -1.219995 3.441778 3.963009
v -1.219995 3.441778 -3.963010
v 1.219995 3.441778 3.963012
v 1.219995 3.441778 -3.963008
v -1.219995 3.441778 -3.804490
v 1.219995 3.441778 -3.804490
v -1.219995 3.441778 3.804490
v 1.219995 3.441778 3.804490
v -1.219995 3.531596 3.804490
v -1.219995 3.531596 -3.804490
v 1.219995 3.531596 -3.804490
v 1.219995 3.531596 3.804490
v -1.219995 3.618178 0.000000
v 0.000000 3.531596 -3.804490
v 1.219995 3.618178 0.000000
v 0.000000 3.531596 3.804490
v 0.000000 3.769477 0.000000
vt 0.999969 0.000031
vt 0.997203 0.101064
vt 0.958173 0.063724
vt 0.964983 0.039479
vt 0.000042 0.071527
vt 0.097158 0.000042
vt 0.122160 0.079496
vt 0.063322 0.082821
vt 0.990643 0.044381
vt 0.999958 0.106210
vt 0.935058 0.087588
vt 0.932369 0.075631
vt 0.892806 0.000042
vt 0.873090 0.072067
vt 0.122356 0.100129
vt 0.061855 0.094203
vt 0.873634 0.092754
vt 0.899389 0.175303
vt 0.103052 0.174543
vt 0.005154 0.132950
vt 0.043561 0.026370
vt 0.957094 0.033571
vt 0.965444 0.057853
vt 0.036274 0.053291
vt 0.002263 0.000031
vt 0.998721 0.000448
vt 0.999969 0.093156
vt 0.932875 0.093156
vt 0.047791 0.093150
vt 0.000031 0.093150
vt 0.044579 0.063338
vt 0.035375 0.035648
vt 0.000031 0.000031
vt 0.041871 0.000031
vt 0.936332 0.000031
vt 0.000821 0.097174
vt 0.723896 0.221783
vt 0.996603 0.221783
vt 0.996603 0.359270
vt 0.723896 0.359270
vt -0.003323 0.221783
vt 0.269384 0.221783
vt 0.269384 0.359270
vt -0.003323 0.359270
vt 0.106519 0.890237
vt 0.106841 0.812575
vt 0.109446 0.183156
vt 0.109763 0.106519
vt 0.893481 0.109763
vt 0.890237 0.893481
vt 0.106519 0.890237
vt 0.106726 0.840361
vt 0.122188 0.840371
vt 0.875277 0.840884
vt 0.890455 0.840894
vt 0.890237 0.893481
vt 0.816946 0.893177
vt 0.199698 0.890623
vt 0.107898 0.557166
vt 0.192150 0.557697
vt 0.184182 0.890559
vt 0.106519 0.890237
vt 0.107890 0.558987
vt 0.109475 0.176083
vt 0.109638 0.136569
vt 0.893369 0.136656
vt 0.890237 0.893481
vt 0.106519 0.890237
vt 0.109651 0.133413
vt 0.109763 0.106519
vt 0.893481 0.109763
vt 0.893299 0.153616
vt 0.813601 0.893163
vt 0.816387 0.561737
vt 0.891608 0.562230
vt 0.890237 0.893481
vt 0.893193 0.179326
vt 0.819605 0.178921
vt 0.819937 0.139487
vt 0.893356 0.139813
vt 0.201298 0.175558
vt 0.202227 0.136757
vt 0.109479 0.175078
vt 0.109639 0.136352
vt 0.819605 0.178921
vt 0.201298 0.175558
vt 0.890419 0.849627
vt 0.106643 0.860405
vt 0.106803 0.821679
vt 0.108384 0.439591
vt 0.109763 0.106519
vt 0.893481 0.109763
vt 0.893326 0.147195
vt 0.878568 0.147047
vt 0.123815 0.139455
vt 0.109627 0.139312
vt 0.109763 0.106519
vt 0.893481 0.109763
vt 0.122188 0.840371
vt 0.498733 0.840628
vt 0.875277 0.840884
vt 0.123815 0.139455
vt 0.123001 0.489913
vt 0.878568 0.147047
vt 0.501191 0.143251
vt 0.876923 0.493965
vt 0.467261 0.500000
vt 2.336092 0.500003
vt 2.339978 2.500327
vt 0.467258 2.503965
vt -1.401570 0.499998
vt -1.405462 2.500322
vt -1.405457 -1.500326
vt 0.467263 -1.503965
vt 2.339983 -1.500322
vn 1.0000 0.0000 0.0000
vn 0.0000 -1.0000 0.0001
vn 0.0000 0.0000 -1.0000
vn 0.3166 0.9486 -0.0000
vn 0.0000 0.0000 1.0000
vn 0.0000 -1.0000 0.0000
vn -0.0000 0.9517 0.3072
vn -1.0000 0.0000 -0.0000
vn 0.0000 0.9517 -0.3072
vn 0.0000 1.0000 -0.0000
vn 0.0618 0.9972 -0.0425
vn -0.0618 0.9972 -0.0425
vn -0.0618 0.9972 0.0425
vn 0.0618 0.9972 0.0425
usemtl Material
s off
f 9/5/2 29/6/2 47/7/2 48/8/2
f 30/9/3 32/10/3 40/11/3 35/12/3
f 29/13/4 9/14/4 34/15/4 33/16/4
f 31/17/3 29/13/3 33/16/3 39/18/3
f 35/12/2 40/11/2 37/19/2 36/20/2
f 40/11/2 39/18/2 38/21/2 37/19/2
f 39/18/2 33/16/2 34/15/2 38/21/2
f 9/14/5 16/22/5 38/21/5 34/15/5
f 32/10/3 31/17/3 39/18/3 40/11/3
f 16/22/5 13/23/5 37/19/5 38/21/5
f 13/23/5 10/24/5 36/20/5 37/19/5
f 10/24/6 30/9/6 35/12/6 36/20/6
f 44/25/6 42/26/6 43/27/6 45/28/6
f 41/29/7 30/30/7 42/26/7 44/25/7
f 10/31/8 53/32/8 51/33/8 11/34/8 45/28/8 43/27/8
f 11/34/9 41/29/9 44/25/9 45/28/9
f 30/30/2 10/31/2 43/27/2 42/26/2
f 48/8/4 47/7/4 49/35/4 50/36/4
f 12/37/10 52/38/10 54/39/10 9/5/10 48/8/10 50/36/10
f 46/40/9 12/37/9 50/36/9 49/35/9
f 29/6/7 46/40/7 49/35/7 47/7/7
usemtl Material_triplay-caobilla-3.jpg
f 24/41/6 19/42/6 26/43/6 25/44/6
f 18/45/4 23/46/4 28/47/4 27/48/4
f 23/46/11 24/41/11 25/44/11 28/47/11
usemtl Material_cemento.jpg
f 5/49/7 15/50/7 14/51/7 6/52/7 7/53/7 8/54/7
f 9/55/11 54/56/11 56/57/11 58/58/11 53/59/11 10/60/11 13/61/11 16/62/11
f 5/49/2 22/63/2 24/64/2 15/65/2
f 6/66/6 21/67/6 17/68/6 30/69/6 41/70/6 7/71/6
f 7/72/9 41/73/9 11/74/9 12/75/9 46/76/9 8/54/9
f 14/77/2 23/78/2 21/79/2 6/80/2
f 15/65/2 24/64/2 23/78/2 14/77/2
f 17/81/2 18/82/2 32/83/2 30/84/2
f 18/82/2 19/85/2 31/86/2 32/83/2
f 19/85/2 20/87/2 29/88/2 31/86/2
f 21/79/2 23/78/2 18/82/2 17/81/2
f 24/64/2 22/63/2 20/87/2 19/85/2
f 19/85/7 18/82/7 27/89/7 26/90/7
f 46/91/4 29/92/4 20/93/4 22/94/4 5/95/4 8/96/4
f 51/97/11 57/98/11 55/99/11 52/100/11 12/101/11 11/102/11
f 53/59/11 58/58/11 57/98/11 51/97/11
f 55/99/11 56/57/11 54/56/11 52/100/11
f 58/58/2 56/57/2 61/103/2 65/104/2 62/105/2
f 56/57/4 55/99/4 60/106/4 64/107/4 61/103/4
f 55/99/9 57/98/9 59/108/9 63/109/9 60/106/9
f 57/98/6 58/58/6 62/105/6 66/110/6 59/108/6
usemtl Material_impermeabilizante.jpg
f 67/111/12 65/112/12 61/113/12 64/114/12
f 63/115/13 67/111/13 64/114/13 60/116/13
f 59/117/14 66/118/14 67/111/14 63/115/14
f 66/118/15 62/119/15 65/112/15 67/111/15
o Plane.001
v 0.877059 3.388489 3.521073
v 0.877059 0.015672 3.521073
v -1.297784 3.388488 2.265427
v -1.297784 0.015672 2.265427
vt -0.006501 1.014563
vt -0.003371 0.008459
vt 0.691213 0.009083
vt 0.688083 1.015187
vn 0.5000 0.0000 -0.8660
usemtl None_sou1.jpg
s off
f 68/120/16 69/121/16 71/122/16 70/123/16
