# Blender v2.79 (sub 0) OBJ File: ''
# www.blender.org
mtllib toldoCarrusel.mtl
o Cone
v 0.000232 -0.993433 -1.002057
v 0.195322 -0.993433 -0.982843
v 0.382915 -0.993433 -0.925937
v 0.555802 -0.993433 -0.833527
v 0.707338 -0.993433 -0.709164
v 0.831701 -0.993433 -0.557627
v 0.924111 -0.993433 -0.384741
v 0.981017 -0.993433 -0.197148
v 1.000232 -0.993433 -0.002057
v 0.981017 -0.993433 0.193033
v 0.924111 -0.993433 0.380626
v 0.831701 -0.993433 0.553513
v 0.707338 -0.993433 0.705049
v 0.555802 -0.993433 0.829412
v 0.382915 -0.993433 0.921822
v 0.195322 -0.993433 0.978728
v 0.000231 -0.993433 0.997943
v -0.194859 -0.993433 0.978728
v -0.382452 -0.993433 0.921822
v -0.555339 -0.993433 0.829412
v -0.706876 -0.993433 0.705049
v -0.831238 -0.993433 0.553512
v -0.923648 -0.993433 0.380625
v 0.000232 1.006567 -0.002057
v -0.980554 -0.993433 0.193032
v -0.999768 -0.993433 -0.002058
v -0.980553 -0.993433 -0.197149
v -0.923647 -0.993433 -0.384742
v -0.831237 -0.993433 -0.557629
v -0.706874 -0.993433 -0.709165
v -0.555337 -0.993433 -0.833528
v -0.382450 -0.993433 -0.925937
v -0.194857 -0.993433 -0.982843
vt 0.000000 0.000000
vt 1.000000 0.000000
vt 1.000000 1.000000
vt 0.000000 0.000000
vt 1.000000 1.000000
vt 0.000000 0.000000
vt 1.000000 1.000000
vt 0.000000 0.000000
vt 1.000000 1.000000
vt 0.000000 0.000000
vt 1.000000 1.000000
vt 0.000000 0.000000
vt 1.000000 1.000000
vt 0.000000 0.000000
vt 1.000000 1.000000
vt 0.000000 0.000000
vt 1.000000 1.000000
vt 0.000000 0.000000
vt 1.000000 1.000000
vt 0.000000 0.000000
vt 1.000000 1.000000
vt 0.000000 0.000000
vt 1.000000 1.000000
vt 0.000000 0.000000
vt 1.000000 1.000000
vt 0.000000 0.000000
vt 1.000000 1.000000
vt 0.000000 0.000000
vt 1.000000 1.000000
vt 0.000000 0.000000
vt 1.000000 1.000000
vt 0.000000 0.000000
vt 1.000000 1.000000
vt 0.000000 0.000000
vt 0.000000 0.000000
vt 0.000000 0.000000
vt 0.000000 0.000000
vt 0.000000 0.000000
vt 0.000000 0.000000
vt 0.000000 0.000000
vt 0.000000 0.000000
vt 0.000000 0.000000
vt 0.000000 0.000000
vt 0.000000 0.000000
vt 0.000000 0.000000
vt 0.000000 0.000000
vt 0.000000 0.000000
vt 0.000000 0.000000
vt 0.000000 0.000000
vt 0.000000 0.000000
vn 0.0878 0.4455 -0.8910
vn 0.4220 0.4455 -0.7896
vn 0.6921 0.4455 -0.5680
vn 0.8567 0.4455 -0.2599
vn 0.8910 0.4455 0.0878
vn 0.7896 0.4455 0.4220
vn 0.5680 0.4455 0.6921
vn 0.2599 0.4455 0.8567
vn -0.0878 0.4455 0.8910
vn -0.4220 0.4455 0.7896
vn -0.6921 0.4455 0.5680
vn -0.8567 0.4455 0.2599
vn -0.8910 0.4455 -0.0878
vn -0.7896 0.4455 -0.4220
vn -0.5680 0.4455 -0.6921
vn -0.2599 0.4455 -0.8567
vn 0.2599 0.4455 -0.8567
vn 0.5680 0.4455 -0.6921
vn 0.7896 0.4455 -0.4220
vn 0.8910 0.4455 -0.0878
vn 0.8567 0.4455 0.2599
vn 0.6921 0.4455 0.5680
vn 0.4220 0.4455 0.7896
vn 0.0878 0.4455 0.8910
vn -0.2599 0.4455 0.8567
vn -0.5680 0.4455 0.6921
vn -0.7896 0.4455 0.4220
vn -0.8910 0.4455 0.0878
vn -0.8567 0.4455 -0.2599
vn -0.6921 0.4455 -0.5680
vn -0.4220 0.4455 -0.7896
vn -0.0878 0.4455 -0.8910
vn 0.0000 -1.0000 0.0000
usemtl None
s off
f 1/1/1 24/2/1 2/3/1
f 3/4/2 24/2/2 4/5/2
f 5/6/3 24/2/3 6/7/3
f 7/8/4 24/2/4 8/9/4
f 9/10/5 24/2/5 10/11/5
f 11/12/6 24/2/6 12/13/6
f 13/14/7 24/2/7 14/15/7
f 15/16/8 24/2/8 16/17/8
f 17/18/9 24/2/9 18/19/9
f 19/20/10 24/2/10 20/21/10
f 21/22/11 24/2/11 22/23/11
f 23/24/12 24/2/12 25/25/12
f 26/26/13 24/2/13 27/27/13
f 28/28/14 24/2/14 29/29/14
f 30/30/15 24/2/15 31/31/15
f 32/32/16 24/2/16 33/33/16
usemtl None_NONE
f 2/34/17 24/35/17 3/4/17
f 4/36/18 24/35/18 5/6/18
f 6/37/19 24/35/19 7/8/19
f 8/38/20 24/35/20 9/10/20
f 10/39/21 24/35/21 11/12/21
f 12/40/22 24/35/22 13/14/22
f 14/41/23 24/35/23 15/16/23
f 16/42/24 24/35/24 17/18/24
f 18/43/25 24/35/25 19/20/25
f 20/44/26 24/35/26 21/22/26
f 22/45/27 24/35/27 23/24/27
f 25/46/28 24/35/28 26/26/28
f 27/47/29 24/35/29 28/28/29
f 29/48/30 24/35/30 30/30/30
f 31/49/31 24/35/31 32/32/31
f 33/50/32 24/35/32 1/1/32
f 1/1/33 2/34/33 3/4/33 4/36/33 5/6/33 6/37/33 7/8/33 8/38/33 9/10/33 10/39/33 11/12/33 12/40/33 13/14/33 14/41/33 15/16/33 16/42/33 17/18/33 18/43/33 19/20/33 20/44/33 21/22/33 22/45/33 23/24/33 25/46/33 26/26/33 27/47/33 28/28/33 29/48/33 30/30/33 31/49/33 32/32/33 33/50/33
